<svg width="64" height="48" viewBox="0 0 64 48" fill="none" xmlns="http://www.w3.org/2000/svg"><path d="M21.945 32.12l8.806 4.003v4.803l-8.806-4.002V32.12z" fill="#8C25DD"/><path d="M30.75 36.123l12.81-7.203v4.803l-12.808 7.204v-4.803z" fill="#B458FC"/><path d="M21.945 32.12l12.808-7.204 8.806 4.003-12.808 7.204-8.806-4.002z" fill="#4E0984"/><path d="M21.945 26.578l8.806 4.002v4.803l-8.806-4.002v-4.803z" fill="#8C25DD"/><path d="M30.75 30.58l12.809-7.204v4.803l-12.808 7.204V30.58z" fill="#B458FC"/><path d="M21.945 26.578l12.808-7.205 8.806 4.003-12.808 7.204-8.806-4.002z" fill="#4E0984"/><path d="M21.945 20.974l8.806 4.003v4.803l-8.806-4.003v-4.803z" fill="#8C25DD"/><path d="M30.75 24.977l12.809-7.205v4.803L30.751 29.78v-4.803z" fill="#B458FC"/><path d="M21.945 20.974l12.808-7.204 8.806 4.002-12.808 7.205-8.806-4.003z" fill="#4E0984"/><path d="M21.945 15.37l8.806 4.003v4.803l-8.806-4.002V15.37z" fill="#8C25DD"/><path d="M30.75 19.373l12.81-7.203v4.803l-12.808 7.204v-4.803z" fill="#B458FC"/><path d="M21.945 15.37l12.808-7.204 8.806 4.003-12.808 7.204-8.806-4.002z" fill="#CB88FF"/></svg>