<svg width="545" height="309" viewBox="0 0 545 309" fill="none" xmlns="http://www.w3.org/2000/svg">
<g clip-path="url(#clip0_9579:19432)">
<path d="M518.955 290.089H25.7539V292.512H518.955V290.089Z" fill="#0051C3"/>
<path d="M171.711 266.4H102.609V268.824H171.711V266.4Z" fill="#0051C3"/>
<path d="M76.8653 266.4H-0.148438V268.824H76.8653V266.4Z" fill="#0051C3"/>
<path d="M425.088 266.4H379.699V268.824H425.088V266.4Z" fill="#0051C3"/>
<path d="M544.999 266.4H444.055V268.824H544.999V266.4Z" fill="#0051C3"/>
<path d="M79.0326 190.964V186.747C78.9829 183.685 79.4186 180.635 80.3254 177.709C81.1568 175.275 82.5102 173.05 84.2909 171.19C86.4405 169.006 88.8244 167.066 91.4014 165.406C93.6081 163.932 95.6582 162.238 97.5226 160.35C98.9986 158.857 100.176 157.097 100.993 155.165C101.742 153.275 102.114 151.259 102.093 149.227C102.154 146.098 101.324 143.017 99.699 140.341C98.1234 137.791 95.8912 135.711 93.2342 134.317C90.4097 132.843 87.2611 132.096 84.0748 132.145C80.8546 132.101 77.678 132.887 74.8499 134.425C72.1067 135.933 69.8174 138.144 68.2176 140.832C66.4952 143.784 65.5885 147.14 65.5885 150.556H60.1094C60.1106 146.304 61.2491 142.131 63.4073 138.465C65.4683 135.014 68.4252 132.182 71.9634 130.268C79.5279 126.367 88.5088 126.335 96.1012 130.182C99.5157 132.003 102.368 134.717 104.355 138.034C106.382 141.473 107.419 145.404 107.351 149.394C107.38 151.899 106.941 154.387 106.058 156.731C105.121 159.07 103.746 161.209 102.006 163.032C99.841 165.288 97.4425 167.306 94.851 169.056C92.563 170.572 90.4461 172.333 88.5392 174.306C87.0705 175.854 85.9599 177.705 85.285 179.728C84.6077 182.004 84.2872 184.37 84.337 186.743V190.96L79.0326 190.964ZM81.7904 217.212C79.2244 217.207 77.1488 215.125 77.1537 212.563C77.1585 210.002 79.2439 207.93 81.8098 207.934C84.3686 207.939 86.4417 210.01 86.4466 212.565C86.4563 213.389 86.2402 214.2 85.8215 214.911C85.4136 215.605 84.8359 216.182 84.1404 216.589C83.4279 217.006 82.6158 217.221 81.7904 217.212Z" fill="#ACE2F0"/>
<path d="M123.479 218.893V217.302C123.421 214.739 123.77 212.184 124.513 209.73C125.121 207.885 126.133 206.199 127.478 204.795C128.949 203.318 130.589 202.017 132.363 200.918C133.703 200.07 134.936 199.066 136.038 197.927C137.003 196.918 137.774 195.74 138.31 194.451C138.841 193.136 139.107 191.729 139.092 190.311C139.137 188.349 138.62 186.415 137.601 184.737C136.622 183.159 135.23 181.881 133.573 181.039C130.065 179.301 125.948 179.29 122.431 181.01C120.727 181.866 119.288 183.17 118.269 184.781C117.14 186.634 116.535 188.757 116.514 190.924H110.941C110.962 187.947 111.8 185.033 113.362 182.498C114.852 180.143 116.953 178.235 119.442 176.973C122.074 175.645 124.989 174.973 127.938 175.013C130.935 174.95 133.901 175.644 136.556 177.032C138.96 178.306 140.97 180.211 142.371 182.541C143.792 184.964 144.518 187.731 144.466 190.539C144.489 192.389 144.169 194.228 143.521 195.961C142.871 197.624 141.914 199.154 140.703 200.468C139.315 201.959 137.742 203.266 136.024 204.358C134.477 205.348 133.059 206.526 131.803 207.865C130.771 209.004 130.005 210.357 129.56 211.827C129.066 213.607 128.817 215.446 128.822 217.292V218.883L123.479 218.893ZM126.313 236.632C123.956 236.642 122.037 234.743 122.027 232.39C122.017 230.037 123.919 228.121 126.277 228.111C128.634 228.101 130.553 230 130.563 232.353C130.566 233.111 130.367 233.855 129.986 234.51C129.615 235.148 129.087 235.68 128.453 236.058C127.806 236.442 127.066 236.641 126.313 236.632Z" fill="#ACE2F0"/>
<path d="M36.7623 218.894V217.302C36.7028 214.74 37.0524 212.184 37.7952 209.73C38.4033 207.885 39.4169 206.199 40.7617 204.796C42.2329 203.319 43.8727 202.017 45.6461 200.918C46.9849 200.07 48.2182 199.067 49.3203 197.928C50.2865 196.919 51.0573 195.74 51.5926 194.451C52.123 193.136 52.39 191.729 52.3755 190.312C52.4204 188.35 51.9033 186.416 50.8837 184.737C49.9054 183.16 48.5119 181.881 46.8563 181.039C43.3484 179.302 39.2299 179.291 35.7135 181.01C34.0093 181.872 32.5734 183.179 31.5587 184.794C30.4298 186.647 29.8229 188.77 29.8023 190.938H24.2188C24.2394 187.961 25.0769 185.046 26.6391 182.511C28.1296 180.157 30.2307 178.248 32.7191 176.987C35.3518 175.659 38.2662 174.985 41.2157 175.026C44.2126 174.963 47.1779 175.658 49.8338 177.045C52.2371 178.32 54.2472 180.225 55.6479 182.555C57.0705 184.977 57.7951 187.745 57.7441 190.553C57.7672 192.403 57.4468 194.241 56.7986 195.974C56.148 197.639 55.1915 199.167 53.9801 200.482C52.5927 201.972 51.0209 203.28 49.3021 204.372C47.7557 205.362 46.338 206.54 45.0817 207.879C44.05 209.018 43.284 210.371 42.8374 211.841C42.3433 213.621 42.0957 215.459 42.1006 217.306V218.897L36.7623 218.894ZM39.5965 236.633C37.2393 236.642 35.3202 234.743 35.3105 232.39C35.3008 230.037 37.2029 228.121 39.5601 228.111C41.9173 228.102 43.8363 230.001 43.846 232.354C43.8497 233.111 43.6506 233.855 43.2695 234.511C42.8981 235.148 42.37 235.68 41.7352 236.058C41.0883 236.442 40.3491 236.641 39.5965 236.633Z" fill="#ACE2F0"/>
<path d="M455.057 190.963V186.746C455.008 183.684 455.443 180.634 456.35 177.709C457.181 175.275 458.535 173.05 460.316 171.19C462.465 169.005 464.85 167.064 467.427 165.402C469.634 163.928 471.684 162.234 473.548 160.346C475.024 158.853 476.202 157.093 477.019 155.161C477.768 153.271 478.14 151.255 478.118 149.223C478.18 146.094 477.35 143.013 475.725 140.337C474.149 137.788 471.917 135.707 469.26 134.313C466.436 132.839 463.287 132.092 460.101 132.141C456.88 132.097 453.704 132.884 450.876 134.421C448.13 135.929 445.837 138.143 444.237 140.833C442.515 143.785 441.608 147.141 441.608 150.557H436.133C436.134 146.305 437.273 142.132 439.431 138.466C441.492 135.015 444.449 132.183 447.987 130.269C455.551 126.368 464.534 126.336 472.126 130.183C475.54 132.004 478.393 134.718 480.38 138.035C482.407 141.474 483.443 145.405 483.375 149.395C483.405 151.9 482.966 154.388 482.083 156.732C481.146 159.071 479.77 161.21 478.031 163.033C475.866 165.289 473.467 167.307 470.876 169.057C468.588 170.573 466.471 172.334 464.564 174.307C463.095 175.855 461.985 177.706 461.31 179.729C460.631 182.005 460.312 184.371 460.362 186.744V190.961L455.057 190.963ZM457.815 217.211C455.259 217.197 453.199 215.115 453.215 212.563C453.229 210.011 455.315 207.955 457.871 207.971C460.427 207.985 462.487 210.067 462.471 212.619C462.466 213.423 462.252 214.214 461.847 214.909C461.44 215.603 460.862 216.18 460.166 216.587C459.454 217.005 458.639 217.221 457.813 217.211H457.815Z" fill="#ACE2F0"/>
<path d="M499.501 218.893V217.302C499.443 214.739 499.793 212.184 500.536 209.73C501.144 207.885 502.157 206.2 503.501 204.795C504.973 203.317 506.612 202.016 508.387 200.918C509.725 200.07 510.959 199.066 512.061 197.927C513.027 196.918 513.797 195.74 514.333 194.451C514.863 193.136 515.129 191.729 515.115 190.311C515.16 188.349 514.643 186.415 513.624 184.737C512.646 183.159 511.252 181.881 509.597 181.039C506.089 179.301 501.97 179.29 498.454 181.01C496.75 181.866 495.311 183.17 494.292 184.781C493.163 186.634 492.557 188.757 492.537 190.924H486.953C486.974 187.947 487.811 185.033 489.373 182.498C490.864 180.143 492.965 178.235 495.453 176.973C498.086 175.645 501.001 174.973 503.95 175.013C506.947 174.95 509.912 175.644 512.568 177.032C514.971 178.306 516.982 180.211 518.382 182.541C519.804 184.964 520.529 187.731 520.477 190.539C520.5 192.389 520.181 194.228 519.533 195.961C518.882 197.624 517.926 199.154 516.715 200.468C515.327 201.959 513.754 203.266 512.035 204.358C510.489 205.348 509.071 206.526 507.816 207.865C506.783 209.004 506.017 210.357 505.572 211.827C505.078 213.607 504.83 215.446 504.835 217.292V218.883L499.501 218.893ZM502.336 236.632C499.981 236.641 498.066 234.741 498.057 232.39C498.049 230.039 499.952 228.127 502.307 228.118C504.661 228.11 506.577 230.01 506.585 232.361C506.588 233.116 506.39 233.857 506.01 234.51C505.637 235.148 505.109 235.68 504.476 236.058C503.829 236.442 503.088 236.641 502.336 236.632Z" fill="#ACE2F0"/>
<path d="M412.786 218.893V217.302C412.727 214.739 413.076 212.184 413.819 209.73C414.427 207.885 415.44 206.199 416.785 204.795C418.256 203.318 419.896 202.017 421.67 200.918C423.008 200.07 424.242 199.066 425.344 197.927C426.31 196.919 427.081 195.74 427.617 194.451C428.148 193.136 428.413 191.729 428.399 190.311C428.444 188.349 427.927 186.415 426.908 184.737C425.929 183.159 424.537 181.881 422.88 181.039C419.372 179.301 415.253 179.29 411.737 181.01C410.033 181.866 408.594 183.17 407.576 184.781C406.447 186.634 405.84 188.757 405.82 190.924H400.242C400.263 187.947 401.1 185.033 402.663 182.498C404.153 180.143 406.254 178.235 408.743 176.973C411.375 175.645 414.29 174.973 417.239 175.013C420.236 174.95 423.201 175.644 425.857 177.032C428.261 178.306 430.271 180.211 431.671 182.541C433.094 184.964 433.819 187.731 433.768 190.539C433.791 192.389 433.471 194.228 432.823 195.961C432.173 197.625 431.216 199.154 430.004 200.468C428.616 201.959 427.044 203.266 425.326 204.358C423.779 205.348 422.361 206.526 421.105 207.865C420.073 209.004 419.307 210.357 418.862 211.827C418.367 213.607 418.119 215.446 418.124 217.292V218.883L412.786 218.893ZM415.62 236.632C413.263 236.642 411.344 234.743 411.334 232.39C411.324 230.037 413.226 228.121 415.584 228.111C417.941 228.101 419.86 230 419.869 232.353C419.873 233.111 419.674 233.855 419.293 234.51C418.921 235.148 418.393 235.68 417.759 236.058C417.112 236.442 416.372 236.641 415.62 236.632Z" fill="#ACE2F0"/>
<path d="M379.7 291.301H165.008V17.6992H335.385L379.7 61.9395V291.301Z" fill="#ACE2F0"/>
<path d="M380.913 292.513H163.793V16.4873H335.887L380.914 61.4377V292.513H380.913ZM166.221 290.089H378.485V62.4411L334.88 18.9108H166.221V290.089Z" fill="#0050E4"/>
<path d="M177.66 278.669V30.3301H348.038L367.047 49.3075V278.669H177.66Z" fill="white"/>
<path d="M236.605 121.063C241.968 121.063 246.315 116.723 246.315 111.369C246.315 106.015 241.968 101.675 236.605 101.675C231.242 101.675 226.895 106.015 226.895 111.369C226.895 116.723 231.242 121.063 236.605 121.063Z" fill="#0051C3"/>
<path d="M308.097 121.063C313.46 121.063 317.808 116.723 317.808 111.369C317.808 106.015 313.46 101.675 308.097 101.675C302.734 101.675 298.387 106.015 298.387 111.369C298.387 116.723 302.734 121.063 308.097 121.063Z" fill="#0051C3"/>
<path d="M237.466 179.425L235.75 177.711C240.521 172.947 252.811 163.506 267.111 157.023C279.135 151.57 296.119 146.705 308.739 154.479L307.463 156.542C285.33 142.901 246.482 170.423 237.466 179.425Z" fill="#0051C3"/>
<path d="M379.702 61.9395H335.387V17.6992" fill="#003682"/>
<path d="M379.701 63.1513H334.172V17.6992H336.599V60.7278H379.701V63.1513Z" fill="#0051C3"/>
<path d="M336.24 16.8449L334.523 18.5586L378.838 62.7989L380.555 61.0852L336.24 16.8449Z" fill="#0050E4"/>
<path d="M239.492 111.655C241.167 111.655 242.526 110.298 242.526 108.625C242.526 106.952 241.167 105.596 239.492 105.596C237.816 105.596 236.457 106.952 236.457 108.625C236.457 110.298 237.816 111.655 239.492 111.655Z" fill="white"/>
<path d="M311.132 111.655C312.808 111.655 314.167 110.298 314.167 108.625C314.167 106.952 312.808 105.596 311.132 105.596C309.456 105.596 308.098 106.952 308.098 108.625C308.098 110.298 309.456 111.655 311.132 111.655Z" fill="white"/>
</g>
<defs>
<clipPath id="clip0_9579:19432">
<rect width="545" height="309" fill="white"/>
</clipPath>
</defs>
</svg>
