<svg xmlns="http://www.w3.org/2000/svg" fill="none" viewBox="9.44 65.53 748 545.34">
  <path fill="#E0EDFF" d="M382.333 595.997c142.425 0 257.884-115.42 257.884-257.798S524.758 80.4 382.333 80.4c-142.426 0-257.884 115.421-257.884 257.799s115.458 257.798 257.884 257.798Z"/>
  <path fill="url(#a)" stroke="#fff" stroke-width="8" d="M382.335 555.428c120.01 0 217.3-97.256 217.3-217.23 0-119.973-97.29-217.229-217.3-217.229-120.011 0-217.301 97.256-217.301 217.229 0 119.974 97.29 217.23 217.301 217.23Z"/>
  <rect width="744.826" height="141.826" x="11.027" y="269.901" stroke="#0055DC" stroke-width="3.174" rx="70.913"/>
  <rect width="563" height="282" x="108.44" y="198.314" fill="#E2F5FA" stroke="#fff" stroke-width="6" rx="16"/>
  <rect width="553" height="272" x="113.44" y="203.314" fill="#FFF8D6" stroke="url(#b)" stroke-width="4" rx="11"/>
  <path fill="#F8FBFB" d="M131.44 346.314h514v108h-514z"/>
  <rect width="729" height="126" x="18.94" y="277.814" fill="#fff" stroke="#E0ECFF" stroke-width="19" rx="63"/>
  <rect width="744" height="141" x="11.44" y="270.314" stroke="url(#c)" stroke-width="4" rx="70.5"/>
  <path stroke="#F6821F" stroke-width="9" d="M84.069 308.199v65.528m33-32.528H51.54"/>
  <path fill="#5D0C83" d="m141.604 358.314-7.422-27.273h7.652l4.226 18.324h.249l4.403-18.324h7.511l4.474 18.218h.231l4.155-18.218h7.635l-7.404 27.273h-8.008l-4.688-17.152h-.337l-4.687 17.152h-7.99Zm46.529 0-7.422-27.273h7.653l4.225 18.324h.249l4.403-18.324h7.511l4.475 18.218h.23l4.155-18.218h7.635l-7.404 27.273h-8.008l-4.687-17.152h-.338l-4.687 17.152h-7.99Zm46.529 0-7.422-27.273h7.653l4.226 18.324h.248l4.404-18.324h7.51l4.475 18.218h.231l4.155-18.218h7.634l-7.404 27.273h-8.007l-4.688-17.152h-.337l-4.688 17.152h-7.99Zm41.86.462c-1.172 0-2.178-.415-3.019-1.243-.828-.841-1.243-1.847-1.243-3.019 0-1.16.415-2.154 1.243-2.983.841-.828 1.847-1.243 3.019-1.243 1.136 0 2.13.415 2.983 1.243.852.829 1.278 1.823 1.278 2.983 0 .782-.201 1.498-.604 2.149a4.58 4.58 0 0 1-1.544 1.544 4.07 4.07 0 0 1-2.113.569Zm24.379-48.544v59.801h-7.174v-59.801h7.174Z"/>
  <circle cx="150.44" cy="237.006" r="15.5" fill="#F63" stroke="#fff" stroke-width="5"/>
  <path fill="#F6821F" stroke="#fff" stroke-width="5" d="M195.44 252.506c8.747 0 16-6.851 16-15.5 0-8.648-7.253-15.5-16-15.5-8.746 0-16 6.852-16 15.5 0 8.649 7.254 15.5 16 15.5Z"/>
  <path fill="#FCB42F" stroke="#fff" stroke-width="5" d="M240.94 252.506c8.747 0 16-6.851 16-15.5 0-8.648-7.253-15.5-16-15.5-8.746 0-16 6.852-16 15.5 0 8.649 7.254 15.5 16 15.5Z"/>
  <path stroke="#F6821F" stroke-width="4.003" d="M153.245 482.351a270.662 270.662 0 0 0 182.446 122.468 270.676 270.676 0 0 0 213.187-53.255m62.723-357.232a270.667 270.667 0 0 0-396.779-68.74"/>
  <path stroke="#F6821F" stroke-width="4.003" d="m251.296 131.039-36.013-5.256 8.162-37.462m290.963 460.24 36.383.883-3.592 38.172"/>
  <defs>
    <linearGradient id="a" x1="95.718" x2="527.808" y1="160.344" y2="192.661" gradientUnits="userSpaceOnUse">
      <stop stop-color="#DE0C52"/>
      <stop offset=".32" stop-color="#FF5713"/>
      <stop offset=".58" stop-color="#FF7612"/>
      <stop offset="1" stop-color="#FFA612"/>
    </linearGradient>
    <linearGradient id="b" x1="111.44" x2="668.44" y1="339.314" y2="339.314" gradientUnits="userSpaceOnUse">
      <stop stop-color="#CE2F55"/>
      <stop offset=".352" stop-color="#F63"/>
      <stop offset=".686" stop-color="#F6821F"/>
      <stop offset="1" stop-color="#FBAD41"/>
    </linearGradient>
    <linearGradient id="c" x1="15.63" x2="757.44" y1="340.814" y2="340.814" gradientUnits="userSpaceOnUse">
      <stop stop-color="#F63"/>
      <stop offset=".5" stop-color="#F6821F"/>
      <stop offset="1" stop-color="#FBAD41"/>
    </linearGradient>
  </defs>
</svg>