<?xml version="1.0" encoding="UTF-8"?>
<svg width="25px" height="25px" viewBox="0 0 25 25" version="1.1" xmlns="http://www.w3.org/2000/svg" xmlns:xlink="http://www.w3.org/1999/xlink">
    <!-- Generator: Sketch 53.2 (72643) - https://sketchapp.com -->
    <title>ubuntu</title>
    <desc>Created with Sketch.</desc>
    <defs>
        <polygon id="path-1" points="0 0.061995614 24.9381672 0.061995614 24.9381672 24.9269006 0 24.9269006"></polygon>
    </defs>
    <g id="Page-1" stroke="none" stroke-width="1" fill="none" fill-rule="evenodd">
        <g id="logo-linux" transform="translate(-47.000000, -150.000000)">
            <g id="ubuntu" transform="translate(47.000000, 150.000000)">
                <g id="Group-3" transform="translate(0.000000, 0.011111)">
                    <mask id="mask-2" fill="white">
                        <use xlink:href="#path-1"></use>
                    </mask>
                    <g id="Clip-2"></g>
                    <path d="M24.9381672,12.494598 C24.9381672,19.3605336 19.3556158,24.9269079 12.4691789,24.9269079 C5.58244868,24.9269079 -2.93255132e-05,19.3605336 -2.93255132e-05,12.494598 C-2.93255132e-05,5.62822368 5.58252199,0.061995614 12.4691789,0.061995614 C19.3556891,0.061995614 24.9381672,5.62822368 24.9381672,12.494598" id="Fill-1" fill="#DD4814" mask="url(#mask-2)"></path>
                </g>
                <path d="M15.8761804,6.62074561 C16.6724413,7.07922515 17.69011,6.80766082 18.1494941,6.01372807 C18.6093915,5.21979532 18.3369575,4.20510234 17.5406965,3.74647661 C16.7444355,3.28843567 15.7268402,3.5605848 15.2667229,4.35451754 C14.8074853,5.1480117 15.0804326,6.16270468 15.8761804,6.62074561 M12.4691422,17.3540058 C11.737324,17.3540058 11.0431158,17.191652 10.4209018,16.9029825 L9.26415689,18.9697222 C10.2302126,19.4470614 11.3182625,19.716652 12.4691422,19.716652 C13.1385704,19.716652 13.7860777,19.6238889 14.4012537,19.4540789 C14.5097581,18.7870468 14.9068255,18.1731579 15.5397434,17.8082456 C16.1721481,17.4444298 16.9028666,17.4086111 17.5358578,17.6470614 C18.7667962,16.4400439 19.5678959,14.7985965 19.6846114,12.9701608 L17.3118842,12.9352924 C17.0935557,15.4126316 15.0095381,17.3540058 12.4691422,17.3540058 M12.4691422,7.65685673 C15.0094648,7.65685673 17.0935557,9.59888889 17.3123974,12.0755702 L19.6845381,12.0407018 C19.5678226,10.2122661 18.7667229,8.57081871 17.5357845,7.36380117 C16.9027933,7.60225146 16.1716349,7.56577485 15.5396701,7.20254386 C14.9065323,6.83828947 14.5096114,6.22381579 14.4011804,5.55678363 C13.7859311,5.38748538 13.1384238,5.29479532 12.4689223,5.29479532 C11.3181891,5.29479532 10.2301393,5.56431287 9.26408358,6.04106725 L10.4208284,8.10788012 C11.0431158,7.81913743 11.737324,7.65685673 12.4691422,7.65685673 M7.60660557,12.5056871 C7.60660557,10.8653363 8.423761,9.41614035 9.67412757,8.53858187 L8.45704545,6.50605263 C7.00052053,7.47681287 5.91679619,8.9602193 5.46642962,10.6975731 C5.99194282,11.1251316 6.32830645,11.7760088 6.32830645,12.505614 C6.32830645,13.2347807 5.99194282,13.8856579 5.46642962,14.3132164 C5.91620968,16.0510819 6.99993402,17.5345614 8.45704545,18.5053216 L9.67412757,16.4722807 C8.423761,15.5952339 7.60660557,14.1461111 7.60660557,12.5056871 M15.8767669,18.3896053 C15.0804326,18.8481579 14.8074853,19.8627778 15.267456,20.6562719 C15.7268402,21.4502778 16.7444355,21.7223538 17.5406965,21.2638012 C18.3368109,20.8057602 18.6099047,19.7911404 18.1500073,18.9971345 C17.6906232,18.2037135 16.6724413,17.9315643 15.8767669,18.3896053 M3.99054985,10.8454532 C3.07068182,10.8454532 2.32544721,11.5885819 2.32544721,12.5056871 C2.32544721,13.4223538 3.07068182,14.1654094 3.99054985,14.1654094 C4.90990469,14.1654094 5.6551393,13.4223538 5.6551393,12.5056871 C5.6551393,11.5885819 4.90990469,10.8454532 3.99054985,10.8454532" id="Fill-4" fill="#FFFFFF"></path>
            </g>
        </g>
    </g>
</svg>