<svg width="100%" height="auto" viewBox="0 0 108 40" fill="none" xmlns="http://www.w3.org/2000/svg">
<path d="M107.112 20.7118C107.502 20.3212 107.502 19.6881 107.112 19.2975L100.748 12.9336C100.357 12.5431 99.724 12.5431 99.3335 12.9336C98.943 13.3241 98.943 13.9573 99.3335 14.3478L104.99 20.0046L99.3335 25.6615C98.943 26.052 98.943 26.6852 99.3335 27.0757C99.724 27.4662 100.357 27.4662 100.748 27.0757L107.112 20.7118ZM0.619141 21.0046L106.405 21.0046L106.405 19.0046L0.619141 19.0046L0.619141 21.0046Z" fill="black"/>
<ellipse cx="53.512" cy="20.0072" rx="18.5076" ry="17.9935" fill="#E2F5FA"/>
<path d="M60.9417 16.5882H58.9234V13.0239C58.9234 11.6484 58.3532 10.3293 57.3383 9.35667C56.3234 8.38405 54.9469 7.83765 53.5116 7.83765C52.0764 7.83765 50.6999 8.38405 49.685 9.35667C48.6701 10.3293 48.0999 11.6484 48.0999 13.0239V16.5882H46.0816L45.2354 17.3992V28.1001L46.0816 28.9111H60.9417L61.7879 28.1001V17.3992L60.9417 16.5882ZM49.7924 13.0239C49.7924 12.0786 50.1842 11.172 50.8817 10.5036C51.5792 9.83514 52.5252 9.45962 53.5116 9.45962C54.4981 9.45962 55.4441 9.83514 56.1416 10.5036C56.8391 11.172 57.2309 12.0786 57.2309 13.0239V16.5882H49.7924V13.0239ZM60.0955 27.2892H46.9278V18.2102H60.0955V27.2892Z" fill="#0055DC"/>
<path d="M53.5116 19.9092C53.1428 19.9084 52.7845 20.0272 52.4951 20.2464C52.2057 20.4656 52.0023 20.7722 51.9179 21.1164C51.8336 21.4605 51.8732 21.8218 52.0305 22.1416C52.1877 22.4613 52.4532 22.7207 52.7839 22.8774L52.3608 25.4239H54.6625L54.2394 22.8774C54.5701 22.7207 54.8356 22.4613 54.9928 22.1416C55.1501 21.8218 55.1897 21.4605 55.1054 21.1164C55.021 20.7722 54.8175 20.4656 54.5282 20.2464C54.2388 20.0272 53.8805 19.9084 53.5116 19.9092Z" fill="#0055DC"/>
<path d="M53.5118 1.35753C63.8102 1.35753 72.1587 9.70604 72.1587 20.0045C72.1587 30.3029 63.8102 38.6514 53.5118 38.6514C43.2134 38.6514 34.8649 30.3029 34.8649 20.0045C34.8649 9.70604 43.2134 1.35753 53.5118 1.35753Z" fill="#E2F5FA" stroke="#0055DC" stroke-width="2"/>
<path d="M61.1532 18.208H59.0775V14.6079C59.0775 13.2186 58.4911 11.8863 57.4473 10.9039C56.4036 9.92152 54.9879 9.36963 53.5118 9.36963C52.0357 9.36963 50.6201 9.92152 49.5763 10.9039C48.5325 11.8863 47.9461 13.2186 47.9461 14.6079V18.208H45.8704L45.0001 19.0271V29.8354L45.8704 30.6545H61.1532L62.0235 29.8354V19.0271L61.1532 18.208ZM49.6868 14.6079C49.6868 13.6531 50.0898 12.7374 50.8071 12.0623C51.5244 11.3872 52.4974 11.0079 53.5118 11.0079C54.5263 11.0079 55.4992 11.3872 56.2165 12.0623C56.9339 12.7374 57.3369 13.6531 57.3369 14.6079V18.208H49.6868V14.6079ZM60.2829 29.0163H46.7408V19.8462H60.2829V29.0163Z" fill="#0055DC"/>
<path d="M53.5118 21.5623C53.1325 21.5614 52.764 21.6815 52.4664 21.9029C52.1688 22.1243 51.9596 22.434 51.8728 22.7815C51.786 23.1291 51.8268 23.4941 51.9885 23.817C52.1502 24.14 52.4233 24.402 52.7633 24.5602L52.3282 27.1323H54.6955L54.2603 24.5602C54.6003 24.402 54.8734 24.14 55.0351 23.817C55.1968 23.4941 55.2376 23.1291 55.1509 22.7815C55.0641 22.434 54.8549 22.1243 54.5573 21.9029C54.2596 21.6815 53.8912 21.5614 53.5118 21.5623Z" fill="#0055DC"/>
</svg>
