<svg width="100%" height="auto" viewBox="0 0 99 72" fill="none" xmlns="http://www.w3.org/2000/svg">
<path d="M97.0347 7.33496H1V70.4025H97.0347V7.33496Z" fill="white"/>
<path d="M97.0347 3.03491H1V10.2017H97.0347V3.03491Z" fill="#0055DC" stroke="#0055DC" stroke-width="2" stroke-miterlimit="10"/>
<path d="M5.44291 7.90303C6.47155 7.90303 7.30543 7.06915 7.30543 6.04051C7.30543 5.01187 6.47155 4.17798 5.44291 4.17798C4.41426 4.17798 3.58038 5.01187 3.58038 6.04051C3.58038 7.06915 4.41426 7.90303 5.44291 7.90303Z" fill="white"/>
<path d="M11.4656 7.90303C12.4943 7.90303 13.3281 7.06915 13.3281 6.04051C13.3281 5.01187 12.4943 4.17798 11.4656 4.17798C10.437 4.17798 9.60309 5.01187 9.60309 6.04051C9.60309 7.06915 10.437 7.90303 11.4656 7.90303Z" fill="white"/>
<path d="M17.4903 7.90303C18.5189 7.90303 19.3528 7.06915 19.3528 6.04051C19.3528 5.01187 18.5189 4.17798 17.4903 4.17798C16.4616 4.17798 15.6277 5.01187 15.6277 6.04051C15.6277 7.06915 16.4616 7.90303 17.4903 7.90303Z" fill="white"/>
<path d="M56.7985 16.8607H6.72052V37.1304H56.7985V16.8607Z" fill="#E2F5FA"/>
<path d="M35.3365 40.7069H6.72052V65.7459H35.3365V40.7069Z" fill="#E2F5FA"/>
<path d="M91.3764 16.8607H60.3757V37.1304H91.3764V16.8607Z" fill="#E2F5FA"/>
<path d="M91.3762 40.7069H38.9135V65.7459H91.3762V40.7069Z" fill="#E2F5FA"/>
<path d="M97.0347 6.48962H1V69.5572H97.0347V6.48962Z" fill="white"/>
<path d="M97.0347 2.18945H1V9.35622H97.0347V2.18945Z" fill="#0055DC" stroke="#0055DC" stroke-width="2" stroke-miterlimit="10"/>
<path d="M5.44291 7.90706C6.47155 7.90706 7.30543 7.07318 7.30543 6.04454C7.30543 5.0159 6.47155 4.18201 5.44291 4.18201C4.41426 4.18201 3.58038 5.0159 3.58038 6.04454C3.58038 7.07318 4.41426 7.90706 5.44291 7.90706Z" fill="white"/>
<path d="M11.4656 7.90706C12.4943 7.90706 13.3281 7.07318 13.3281 6.04454C13.3281 5.0159 12.4943 4.18201 11.4656 4.18201C10.437 4.18201 9.60309 5.0159 9.60309 6.04454C9.60309 7.07318 10.437 7.90706 11.4656 7.90706Z" fill="white"/>
<path d="M17.4903 7.90706C18.5189 7.90706 19.3528 7.07318 19.3528 6.04454C19.3528 5.0159 18.5189 4.18201 17.4903 4.18201C16.4616 4.18201 15.6277 5.0159 15.6277 6.04454C15.6277 7.07318 16.4616 7.90706 17.4903 7.90706Z" fill="white"/>
<path d="M56.7985 16.0155H6.72052V36.2852H56.7985V16.0155Z" fill="#E2F5FA"/>
<path d="M35.3365 39.8617H6.72052V64.9007H35.3365V39.8617Z" fill="#E2F5FA"/>
<path d="M91.3764 16.0155H60.3757V36.2852H91.3764V16.0155Z" fill="#E2F5FA"/>
<path d="M91.3762 39.8617H38.9135V64.9007H91.3762V39.8617Z" fill="#E2F5FA"/>
<path d="M97.0347 1.60388H1V10.204H97.0347V1.60388Z" stroke="#0055DC" stroke-width="2" stroke-miterlimit="10"/>
<path d="M97.0347 1.60388H1V70.4048H97.0347V1.60388Z" stroke="#0055DC" stroke-width="2" stroke-miterlimit="10"/>
</svg>
