<svg width="100%" height="auto" viewBox="0 0 121 120" fill="none" xmlns="http://www.w3.org/2000/svg">
<path d="M119.97 60.0043C119.97 92.5915 93.5528 119.009 60.9656 119.009C28.3784 119.009 1.9613 92.5915 1.9613 60.0043C1.9613 27.4171 28.3784 1 60.9656 1C93.5528 1 119.97 27.4171 119.97 60.0043Z" fill="white" stroke="#F6821F" stroke-width="2"/>
<path d="M38.733 84.8718H36.8666C36.8325 84.6303 36.7629 84.4159 36.6578 84.2284C36.5527 84.038 36.4177 83.8761 36.2529 83.7426C36.0882 83.609 35.8978 83.5068 35.6819 83.4357C35.4688 83.3647 35.2373 83.3292 34.9873 83.3292C34.5356 83.3292 34.1421 83.4414 33.8069 83.6659C33.4717 83.8875 33.2117 84.2113 33.0271 84.6375C32.8424 85.0607 32.7501 85.575 32.7501 86.1801C32.7501 86.8022 32.8424 87.325 33.0271 87.7482C33.2146 88.1715 33.4759 88.4911 33.8112 88.7071C34.1464 88.923 34.5342 89.0309 34.9745 89.0309C35.2217 89.0309 35.4504 88.9982 35.6606 88.9329C35.8737 88.8676 36.0626 88.7724 36.2274 88.6474C36.3921 88.5196 36.5285 88.3647 36.6365 88.1829C36.7473 88.0011 36.824 87.7937 36.8666 87.5607L38.733 87.5693C38.6848 87.9698 38.564 88.3562 38.3708 88.7284C38.1805 89.0977 37.9234 89.4286 37.5995 89.7213C37.2785 90.011 36.895 90.2411 36.449 90.4116C36.0058 90.5792 35.5044 90.663 34.9447 90.663C34.1663 90.663 33.4703 90.4869 32.8566 90.1346C32.2458 89.7823 31.7629 89.2724 31.4078 88.6048C31.0555 87.9372 30.8794 87.1289 30.8794 86.1801C30.8794 85.2284 31.0583 84.4187 31.4163 83.7511C31.7742 83.0835 32.26 82.575 32.8737 82.2255C33.4873 81.8732 34.1777 81.6971 34.9447 81.6971C35.4504 81.6971 35.9191 81.7681 36.3509 81.9102C36.7856 82.0522 37.1705 82.2596 37.5058 82.5323C37.841 82.8022 38.1137 83.1332 38.324 83.5252C38.537 83.9173 38.6734 84.3661 38.733 84.8718ZM41.8375 81.8164V90.5437H40.0221V81.8164H41.8375ZM46.249 90.6715C45.5871 90.6715 45.0147 90.5309 44.5317 90.2497C44.0516 89.9656 43.6808 89.5707 43.4195 89.065C43.1581 88.5565 43.0274 87.967 43.0274 87.2965C43.0274 86.6204 43.1581 86.0295 43.4195 85.5238C43.6808 85.0153 44.0516 84.6204 44.5317 84.3392C45.0147 84.0551 45.5871 83.913 46.249 83.913C46.911 83.913 47.482 84.0551 47.9621 84.3392C48.4451 84.6204 48.8172 85.0153 49.0786 85.5238C49.3399 86.0295 49.4706 86.6204 49.4706 87.2965C49.4706 87.967 49.3399 88.5565 49.0786 89.065C48.8172 89.5707 48.4451 89.9656 47.9621 90.2497C47.482 90.5309 46.911 90.6715 46.249 90.6715ZM46.2576 89.2653C46.5587 89.2653 46.8101 89.1801 47.0118 89.0096C47.2135 88.8363 47.3655 88.6005 47.4678 88.3022C47.5729 88.0039 47.6255 87.6644 47.6255 87.2838C47.6255 86.9031 47.5729 86.5636 47.4678 86.2653C47.3655 85.967 47.2135 85.7312 47.0118 85.5579C46.8101 85.3846 46.5587 85.298 46.2576 85.298C45.9536 85.298 45.6979 85.3846 45.4905 85.5579C45.286 85.7312 45.1311 85.967 45.026 86.2653C44.9237 86.5636 44.8726 86.9031 44.8726 87.2838C44.8726 87.6644 44.9237 88.0039 45.026 88.3022C45.1311 88.6005 45.286 88.8363 45.4905 89.0096C45.6979 89.1801 45.9536 89.2653 46.2576 89.2653ZM54.8485 87.7568V83.9982H56.6638V90.5437H54.9209V89.3548H54.8527C54.705 89.7383 54.4593 90.0465 54.1155 90.2795C53.7746 90.5125 53.3584 90.6289 52.8669 90.6289C52.4294 90.6289 52.0445 90.5295 51.7121 90.3306C51.3797 90.1318 51.1198 89.8491 50.9323 89.4826C50.7476 89.1161 50.6539 88.6772 50.651 88.1659V83.9982H52.4664V87.842C52.4692 88.2284 52.5729 88.5338 52.7774 88.7582C52.982 88.9826 53.2561 89.0948 53.5999 89.0948C53.8186 89.0948 54.0232 89.0451 54.2135 88.9457C54.4039 88.8434 54.5573 88.6928 54.6737 88.494C54.7931 88.2951 54.8513 88.0494 54.8485 87.7568ZM60.5278 90.6502C60.0306 90.6502 59.5804 90.5224 59.1769 90.2667C58.7764 90.0082 58.4582 89.6289 58.2224 89.1289C57.9894 88.6261 57.873 88.0096 57.873 87.2795C57.873 86.5295 57.9937 85.9059 58.2352 85.4088C58.4767 84.9088 58.7977 84.5352 59.1982 84.288C59.6017 84.038 60.0434 83.913 60.5235 83.913C60.89 83.913 61.1954 83.9755 61.4397 84.1005C61.6869 84.2227 61.8857 84.3761 62.0363 84.5607C62.1897 84.7426 62.3062 84.9215 62.3857 85.0977H62.4411V81.8164H64.2522V90.5437H62.4625V89.4954H62.3857C62.3005 89.6772 62.1798 89.8576 62.0235 90.0366C61.8701 90.2127 61.6698 90.359 61.4227 90.4755C61.1784 90.592 60.8801 90.6502 60.5278 90.6502ZM61.1031 89.2056C61.3957 89.2056 61.6429 89.1261 61.8446 88.967C62.0491 88.8051 62.2054 88.5792 62.3133 88.2894C62.4241 87.9997 62.4795 87.6602 62.4795 87.271C62.4795 86.8818 62.4255 86.5437 62.3176 86.2568C62.2096 85.9698 62.0534 85.7482 61.8488 85.592C61.6443 85.4357 61.3957 85.3576 61.1031 85.3576C60.8048 85.3576 60.5534 85.4386 60.3488 85.6005C60.1443 85.7625 59.9894 85.9869 59.8843 86.2738C59.7792 86.5607 59.7267 86.8931 59.7267 87.271C59.7267 87.6517 59.7792 87.9883 59.8843 88.2809C59.9923 88.5707 60.1471 88.798 60.3488 88.9627C60.5534 89.1247 60.8048 89.2056 61.1031 89.2056ZM69.2647 83.9982V85.3619H65.2249V83.9982H69.2647ZM66.1496 90.5437V83.5252C66.1496 83.0508 66.2419 82.6573 66.4266 82.3448C66.6141 82.0323 66.8698 81.798 67.1936 81.6417C67.5175 81.4855 67.8854 81.4073 68.2973 81.4073C68.5757 81.4073 68.83 81.4286 69.0601 81.4713C69.2931 81.5139 69.4664 81.5522 69.58 81.5863L69.2561 82.95C69.1851 82.9272 69.097 82.9059 68.9919 82.886C68.8897 82.8661 68.7845 82.8562 68.6766 82.8562C68.4095 82.8562 68.2235 82.9187 68.1183 83.0437C68.0132 83.1659 67.9607 83.3377 67.9607 83.5593V90.5437H66.1496ZM72.189 81.8164V90.5437H70.3737V81.8164H72.189ZM75.5097 90.6673C75.0921 90.6673 74.7199 90.5948 74.3932 90.45C74.0665 90.3022 73.808 90.0849 73.6176 89.798C73.4301 89.5082 73.3364 89.1474 73.3364 88.7156C73.3364 88.3519 73.4031 88.0465 73.5367 87.7994C73.6702 87.5522 73.852 87.3534 74.0821 87.2028C74.3122 87.0522 74.5736 86.9386 74.8662 86.8619C75.1617 86.7852 75.4713 86.7312 75.7952 86.7C76.1759 86.6602 76.4827 86.6232 76.7156 86.5892C76.9486 86.5522 77.1176 86.4982 77.2228 86.4272C77.3279 86.3562 77.3804 86.2511 77.3804 86.1119V86.0863C77.3804 85.8164 77.2952 85.6076 77.1247 85.4599C76.9571 85.3122 76.7185 85.2383 76.4088 85.2383C76.0821 85.2383 75.8222 85.3107 75.629 85.4556C75.4358 85.5977 75.308 85.7767 75.2455 85.9926L73.5665 85.8562C73.6517 85.4585 73.8193 85.1147 74.0693 84.825C74.3193 84.5323 74.6418 84.3079 75.0367 84.1517C75.4344 83.9926 75.8946 83.913 76.4174 83.913C76.781 83.913 77.129 83.9556 77.4614 84.0409C77.7966 84.1261 78.0935 84.2582 78.352 84.4372C78.6134 84.6161 78.8193 84.8463 78.9699 85.1275C79.1205 85.4059 79.1958 85.7397 79.1958 86.1289V90.5437H77.4742V89.636H77.423C77.3179 89.8406 77.1773 90.021 77.0012 90.1772C76.825 90.3306 76.6134 90.4514 76.3662 90.5394C76.1191 90.6247 75.8335 90.6673 75.5097 90.6673ZM76.0296 89.4144C76.2966 89.4144 76.5324 89.3619 76.737 89.2568C76.9415 89.1488 77.102 89.0039 77.2185 88.8221C77.335 88.6403 77.3932 88.4343 77.3932 88.2042V87.5096C77.3364 87.5465 77.2583 87.5806 77.1588 87.6119C77.0622 87.6403 76.9529 87.6673 76.8307 87.6928C76.7085 87.7156 76.5864 87.7369 76.4642 87.7568C76.3421 87.7738 76.2313 87.7894 76.1318 87.8036C75.9188 87.8349 75.7327 87.8846 75.5736 87.9528C75.4145 88.021 75.2909 88.1133 75.2029 88.2298C75.1148 88.3434 75.0708 88.4855 75.0708 88.6559C75.0708 88.9031 75.1603 89.092 75.3392 89.2227C75.521 89.3505 75.7512 89.4144 76.0296 89.4144ZM80.6041 90.5437V83.9982H82.3641V85.1403H82.4323C82.5516 84.734 82.7519 84.4272 83.0331 84.2198C83.3144 84.0096 83.6382 83.9045 84.0047 83.9045C84.0956 83.9045 84.1936 83.9102 84.2987 83.9215C84.4039 83.9329 84.4962 83.9485 84.5757 83.9684V85.5792C84.4905 85.5536 84.3726 85.5309 84.222 85.511C84.0715 85.4911 83.9337 85.4812 83.8087 85.4812C83.5416 85.4812 83.303 85.5394 83.0928 85.6559C82.8854 85.7696 82.7206 85.9286 82.5985 86.1332C82.4791 86.3377 82.4195 86.5735 82.4195 86.8406V90.5437H80.6041ZM88.1926 90.6715C87.5193 90.6715 86.9397 90.5352 86.4539 90.2625C85.971 89.9869 85.5988 89.5977 85.3375 89.0948C85.0761 88.5892 84.9454 87.9911 84.9454 87.3008C84.9454 86.6275 85.0761 86.0366 85.3375 85.5281C85.5988 85.0196 85.9667 84.6232 86.4411 84.3392C86.9184 84.0551 87.4781 83.913 88.1201 83.913C88.5519 83.913 88.9539 83.9826 89.3261 84.1218C89.7011 84.2582 90.0278 84.4642 90.3062 84.7397C90.5875 85.0153 90.8062 85.3619 90.9625 85.7795C91.1187 86.1943 91.1968 86.6801 91.1968 87.2369V87.7355H85.6698V86.6105H89.488C89.488 86.3491 89.4312 86.1176 89.3176 85.9159C89.2039 85.7142 89.0463 85.5565 88.8446 85.4428C88.6457 85.3264 88.4142 85.2681 88.15 85.2681C87.8744 85.2681 87.6301 85.3321 87.417 85.4599C87.2068 85.5849 87.042 85.7539 86.9227 85.967C86.8034 86.1772 86.7423 86.4116 86.7394 86.6701V87.7397C86.7394 88.0636 86.7991 88.3434 86.9184 88.5792C87.0406 88.815 87.2125 88.9968 87.434 89.1247C87.6556 89.2525 87.9184 89.3164 88.2224 89.3164C88.4241 89.3164 88.6088 89.288 88.7764 89.2312C88.944 89.1744 89.0875 89.0892 89.2068 88.9755C89.3261 88.8619 89.417 88.7227 89.4795 88.5579L91.1585 88.6687C91.0733 89.0721 90.8985 89.4244 90.6343 89.7255C90.373 90.0238 90.0349 90.2568 89.6201 90.4244C89.2082 90.5892 88.7323 90.6715 88.1926 90.6715Z" fill="#222222"/>
<path d="M77.6058 71.0807L78.0738 69.8604C79.4015 66.4079 83.1608 63.5809 86.6861 63.4233L93.1517 63.0521C93.3015 63.0417 93.4451 62.9881 93.5651 62.8979C93.6852 62.8076 93.7766 62.6846 93.8282 62.5437C93.8551 62.4592 93.8631 62.37 93.8517 62.2821C93.8403 62.1942 93.8097 62.11 93.7621 62.0352C93.7113 61.9645 93.645 61.9062 93.5684 61.8648C93.4917 61.8234 93.4066 61.7999 93.3195 61.7962L87.1032 61.42C86.4139 61.4165 85.7345 61.2552 85.1172 60.9485C84.5 60.6418 83.9612 60.1978 83.5423 59.6505C82.7182 58.4964 82.5249 56.9252 83.0336 55.2219L84.168 51.2508C84.1917 51.1808 84.2304 51.1168 84.2813 51.0632C84.3323 51.0096 84.3943 50.9678 84.4631 50.9407L82.7895 50.2085C82.7957 50.3356 82.7731 50.4625 82.7233 50.5797L81.0446 54.9626C79.7169 58.415 75.9576 61.2471 72.4425 61.4047L43.0092 61.7556C42.8583 61.7644 42.7133 61.8173 42.5921 61.9077C42.471 61.9981 42.379 62.1219 42.3275 62.264C42.2995 62.3483 42.291 62.4378 42.3024 62.5258C42.3139 62.6138 42.345 62.6982 42.3936 62.7725C42.4446 62.8471 42.5128 62.9083 42.5925 62.9508C42.6723 62.9933 42.7611 63.0158 42.8515 63.0165L72.0152 63.408C72.7048 63.41 73.3847 63.5706 74.0022 63.8774C74.6197 64.1843 75.1583 64.6291 75.5761 65.1775C76.4053 66.3317 76.5935 67.9079 76.0848 69.6061L75.6728 71.0349C75.6305 71.1796 75.543 71.307 75.4231 71.3985C75.3032 71.49 75.1572 71.5407 75.0064 71.5434H77.9161C77.8619 71.541 77.8091 71.5259 77.7618 71.4994C77.7145 71.4728 77.6741 71.4355 77.6439 71.3905C77.6137 71.3454 77.5945 71.2939 77.5879 71.2401C77.5813 71.1863 77.5874 71.1317 77.6058 71.0807Z" fill="white"/>
<path d="M76.0738 64.7685L76.4854 63.345C76.9936 61.6531 76.8005 60.0828 75.9772 58.9329C75.5598 58.3866 75.0218 57.9434 74.4048 57.6377C73.7879 57.332 73.1086 57.172 72.4197 57.1701L43.2836 56.78C43.1933 56.7793 43.1046 56.7568 43.0249 56.7145C42.9453 56.6721 42.8771 56.6112 42.8262 56.5369C42.7776 56.4628 42.7465 56.3788 42.735 56.2911C42.7236 56.2034 42.7322 56.1142 42.7601 56.0303C42.8115 55.8887 42.9034 55.7653 43.0245 55.6753C43.1455 55.5853 43.2904 55.5326 43.4411 55.5237L72.8466 55.1742C76.338 55.0172 80.1141 52.1956 81.4405 48.7561L83.1177 44.3896C83.1674 44.2728 83.19 44.1464 83.1837 44.0198C83.1912 43.9507 83.1912 43.8811 83.1837 43.8121C82.2759 39.7483 80.0599 36.0919 76.8735 33.4C73.6871 30.7081 69.7051 29.1285 65.5344 28.9019C61.3637 28.6752 57.233 29.814 53.7719 32.1446C50.3108 34.4752 47.7091 37.8699 46.3634 41.8112C45.1412 40.9114 43.7026 40.3487 42.1926 40.18C40.6826 40.0113 39.1547 40.2425 37.763 40.8503C36.3713 41.4581 35.165 42.421 34.2658 43.6418C33.3666 44.8626 32.8064 46.2982 32.6415 47.8038C32.5383 48.8101 32.6123 49.8267 32.8601 50.8077C29.675 50.8999 26.6513 52.2251 24.4302 54.5023C22.2091 56.7796 20.9653 59.8296 20.9627 63.0056C20.9613 63.5956 21.0037 64.1848 21.0897 64.7685C21.1057 64.906 21.1711 65.0331 21.2739 65.1263C21.3767 65.2194 21.5099 65.2723 21.6488 65.275L75.4436 65.3206C75.594 65.3078 75.7364 65.2473 75.8498 65.1479C75.9632 65.0485 76.0417 64.9155 76.0738 64.7685Z" fill="#F18021"/>
<path d="M85.4835 44.94C85.2159 44.94 84.9582 44.94 84.6956 44.94C84.6532 44.9406 84.6112 44.9491 84.5717 44.9651C84.5048 44.9919 84.4443 45.0333 84.3947 45.0862C84.3451 45.1392 84.3074 45.2025 84.2843 45.2717L83.1645 49.1819C82.669 50.8657 82.8623 52.4187 83.66 53.5596C84.068 54.1005 84.5928 54.5394 85.1941 54.8426C85.7953 55.1458 86.4571 55.3053 87.1285 55.3087L93.1835 55.6806C93.2683 55.6843 93.3512 55.7074 93.4259 55.7483C93.5005 55.7893 93.5651 55.8469 93.6146 55.9168C93.6609 55.9907 93.6907 56.074 93.7019 56.1609C93.713 56.2477 93.7052 56.336 93.679 56.4194C93.6287 56.5588 93.5397 56.6804 93.4227 56.7696C93.3058 56.8587 93.1659 56.9117 93.02 56.922L86.7222 57.2889C83.3082 57.4447 79.6267 60.2392 78.3334 63.6519L77.8776 64.8581C77.8588 64.9084 77.852 64.9625 77.8577 65.016C77.8634 65.0695 77.8815 65.1209 77.9104 65.1659C77.9394 65.211 77.9784 65.2485 78.0244 65.2754C78.0704 65.3022 78.1219 65.3177 78.1749 65.3205H99.8281C99.954 65.3214 100.077 65.2806 100.178 65.2044C100.279 65.1283 100.353 65.0208 100.388 64.8984C101.037 62.5574 101.144 60.0959 100.699 57.7063C100.253 55.3168 99.2692 53.0642 97.8228 51.1249C96.3764 49.1855 94.5071 47.6121 92.3612 46.5278C90.2153 45.4434 87.8511 44.8776 85.4537 44.8746L85.4835 44.94Z" fill="#F9AE40"/>
</svg>
