<svg xmlns="http://www.w3.org/2000/svg" width="600" height="400" viewBox="-10 -30 30 60" fill="none">
  <path d="M11.69 -14.3a17.61 17.61 0 00-2.63-2.76 17.55 17.55 0 00-11.06-4 17.28 17.28 0 00-14.62 26.52 18 18 0 002 2.64 17.8 17.8 0 002.58 2.24v15.4l9.74-7.64 10.3 8.55v-16.32a17.23 17.23 0 003.68-24.63z" fill="#fff"/>
  <path d="M7.62 -15.24a15 15 0 00-22.34 19.58 15.26 15.26 0 001.78 2.29 15.5 15.5 0 002.24 2l.52.37v12.58l8-6.23 8.4 7V9l.52-.37a15 15 0 003.21-21.43l1-.76-1 .76a14.9 14.9 0 00-2.33-2.44zM7 -1.1a9.61 9.61 0 01-2.77 4.57 9.43 9.43 0 01-12.21.57 9.56 9.56 0 01-3.74-7.55A9.53 9.53 0 017 -5.94a9.77 9.77 0 01.32 2.44 9.58 9.58 0 01-.32 2.4z" fill="#0055DC"/>
</svg>
