<svg width="100%" height="auto" viewBox="0 0 122 39" fill="none" xmlns="http://www.w3.org/2000/svg">
<path d="M4.50855 5.45532H0.0113525V28.6012H4.50855V5.45532Z" fill="#0055DC"/>
<path d="M121.831 5.45532H117.333V28.6012H121.831V5.45532Z" fill="#0055DC"/>
<path d="M10.6677 32.724L10.668 37.1165L111.172 37.1112L111.172 32.7187L10.6677 32.724Z" fill="white" stroke="#0055DC" stroke-width="2" stroke-miterlimit="10"/>
<path d="M117.334 1.35559H4.50842V32.7231H117.334V1.35559Z" fill="#C5EBF5" stroke="#0055DC" stroke-width="2" stroke-miterlimit="10"/>
<path d="M112.462 28.3014V5.77905L9.38383 5.77905V28.3014L112.462 28.3014Z" fill="white"/>
<path d="M17.7495 12.1367H15.2521V14.5761H17.7495V12.1367Z" fill="#0055DC"/>
<path d="M17.7495 19.4771H15.2521V21.9164H17.7495V19.4771Z" fill="#0055DC"/>
<path d="M21.1676 15.6122H18.6702V18.0515H21.1676V15.6122Z" fill="#0055DC"/>
<path d="M24.2086 12.1367H21.7112V14.5761H24.2086V12.1367Z" fill="#0055DC"/>
<path d="M24.2086 19.4771H21.7112V21.9164H24.2086V19.4771Z" fill="#0055DC"/>
<path d="M27.4393 15.6122H24.9419V18.0515H27.4393V15.6122Z" fill="#0055DC"/>
<path d="M31.2605 12.1367H28.7631V14.5761H31.2605V12.1367Z" fill="#0055DC"/>
<path d="M31.2605 19.4771H28.7631V21.9164H31.2605V19.4771Z" fill="#0055DC"/>
<path d="M34.4901 15.6122H31.9927V18.0515H34.4901V15.6122Z" fill="#0055DC"/>
<path d="M38.4199 12.1367H35.9225V14.5761H38.4199V12.1367Z" fill="#0055DC"/>
<path d="M38.4199 19.4771H35.9225V21.9164H38.4199V19.4771Z" fill="#0055DC"/>
<path d="M41.4609 15.6122H38.9635V18.0515H41.4609V15.6122Z" fill="#0055DC"/>
<path d="M44.8794 12.1367H42.382V14.5761H44.8794V12.1367Z" fill="#0055DC"/>
<path d="M44.8794 19.4771H42.382V21.9164H44.8794V19.4771Z" fill="#0055DC"/>
<path d="M47.7317 15.6122H45.2343V18.0515H47.7317V15.6122Z" fill="#0055DC"/>
<path d="M51.3415 12.1367H48.8441V14.5761H51.3415V12.1367Z" fill="#0055DC"/>
<path d="M51.3415 19.4771H48.8441V21.9164H51.3415V19.4771Z" fill="#0055DC"/>
<path d="M54.0033 15.6122H51.5059V18.0515H54.0033V15.6122Z" fill="#0055DC"/>
<path d="M104.272 20.0656C105.984 20.0656 107.372 18.7098 107.372 17.0374C107.372 15.365 105.984 14.0093 104.272 14.0093C102.56 14.0093 101.172 15.365 101.172 17.0374C101.172 18.7098 102.56 20.0656 104.272 20.0656Z" fill="#0055DC"/>
<path d="M95.3567 17.038H62.5212" stroke="#0055DC" stroke-width="2" stroke-miterlimit="10"/>
</svg>
